<svg width="24" height="24" viewBox="0 0 24 24" fill="none" xmlns="http://www.w3.org/2000/svg">
<g id="comedy 1">
<g id="g6696">
<g id="g6698">
<g id="Clip path group">
<mask id="mask0_2_470" style="mask-type:luminance" maskUnits="userSpaceOnUse" x="1" y="0" width="22" height="24">
<g id="clipPath6704">
<path id="path6702" d="M1 0H23V24H1V0Z" fill="white"/>
</g>
</mask>
<g mask="url(#mask0_2_470)">
<g id="g6700">
<g id="g6706">
<path id="path6708" fill-rule="evenodd" clip-rule="evenodd" d="M14.8889 3.31869C13.0175 3.66463 11.0937 3.72676 8.79187 3.56718C8.34693 3.53551 7.98969 4.07146 8.13234 4.46974C9.82209 9.18234 10.7133 16.1629 16.7896 16.0715C17.1493 16.1032 17.3833 16.0788 17.6783 15.9071C21.0384 14.1933 21.6857 11.1105 21.7296 7.80231C21.7406 6.98865 21.715 6.16039 21.6845 5.33457C21.6467 4.3236 21.6004 3.31749 21.6053 2.34919C21.6065 2.22492 21.6077 2.1019 21.6101 1.97884C21.6174 1.5562 21.0749 1.18473 20.6714 1.37229C19.1426 2.08244 17.76 2.60859 16.3958 2.97644C15.8923 3.11167 15.3924 3.22489 14.8889 3.31869Z" fill="#FF9158"/>
</g>
<g id="g6710">
<path id="path6712" fill-rule="evenodd" clip-rule="evenodd" d="M19.4851 8.50141C17.2687 10.1226 14.9121 10.5184 12.4286 9.80469C12.2055 9.74131 12.0458 10.058 12.0861 10.2748C12.4664 12.3346 14.5414 13.6781 16.7201 13.2749C18.8975 12.8729 20.3544 10.8765 19.9728 8.81688C19.9338 8.60127 19.6729 8.36373 19.4851 8.50141Z" fill="#FBF8F8"/>
</g>
<g id="g6714">
<path id="path6716" fill-rule="evenodd" clip-rule="evenodd" d="M19.4851 8.50147C19.1401 8.75357 18.7914 8.97649 18.4403 9.1702C18.7366 10.9558 17.6576 12.6817 15.9337 13.3468C16.1922 13.3468 16.4555 13.3237 16.7201 13.275C18.8975 12.873 20.3544 10.8766 19.9728 8.81695C19.9338 8.60133 19.6729 8.3638 19.4851 8.50147Z" fill="#E0D2CE"/>
</g>
<g id="g6718">
<path id="path6720" fill-rule="evenodd" clip-rule="evenodd" d="M21.6101 1.97884C21.6174 1.5562 21.0749 1.18473 20.6714 1.37229C20.5433 1.43073 20.4166 1.48917 20.291 1.54644C20.2898 1.61464 20.2898 1.68412 20.2898 1.75351C20.2837 2.76934 20.3325 3.82417 20.3715 4.88512C20.4044 5.7499 20.4312 6.61835 20.419 7.47222C20.3727 10.9411 19.6936 14.1726 16.1715 15.9692C16.1227 15.9984 16.0752 16.0228 16.0276 16.0447C16.2726 16.0666 16.5262 16.0752 16.7896 16.0715C17.1492 16.1032 17.3833 16.0788 17.6784 15.9071C21.0383 14.1933 21.6857 11.1105 21.7296 7.80226C21.7406 6.98865 21.715 6.16034 21.6845 5.33457C21.6467 4.32356 21.6004 3.31744 21.6053 2.34914C21.6065 2.22492 21.6077 2.10186 21.6101 1.97884Z" fill="#FD6314"/>
</g>
<g id="g6722">
<path id="path6724" fill-rule="evenodd" clip-rule="evenodd" d="M9.12716 9.71207C7.22403 9.71207 5.32095 9.42461 3.08623 8.84844C2.6559 8.73762 2.20722 9.19923 2.27429 9.61706C3.07768 14.5586 2.68391 21.5842 8.67487 22.5977C9.02232 22.6951 9.25762 22.7133 9.57945 22.5977C13.1943 21.5234 14.3927 18.6098 15.0376 15.365C15.1974 14.5659 15.3229 13.7462 15.4424 12.9301C15.5899 11.9289 15.7277 10.9313 15.9094 9.97882C15.9313 9.857 15.9557 9.73639 15.98 9.61706C16.0654 9.20289 15.5997 8.73762 15.1681 8.84844C13.5356 9.26992 12.08 9.53667 10.6718 9.64993C10.1525 9.69136 9.64042 9.71207 9.12716 9.71207Z" fill="#99E6FC"/>
</g>
<g id="g6726">
<path id="path6728" fill-rule="evenodd" clip-rule="evenodd" d="M12.7042 15.644C10.2293 16.8364 7.83974 16.7962 5.52699 15.644C5.31975 15.5404 5.10516 15.8242 5.10516 16.0435C5.10516 18.1385 6.901 19.8364 9.11621 19.8364C11.3302 19.8364 13.126 18.1385 13.126 16.0435C13.126 15.8242 12.9127 15.5428 12.7042 15.644Z" fill="#FBF8F8"/>
</g>
<g id="g6730">
<path id="path6732" fill-rule="evenodd" clip-rule="evenodd" d="M12.7042 15.644C12.3189 15.8291 11.9361 15.985 11.5545 16.1117C11.5216 17.9217 10.1464 19.4223 8.32984 19.7633C8.58465 19.8109 8.84676 19.8364 9.11621 19.8364C11.3302 19.8364 13.126 18.1385 13.126 16.0435C13.126 15.8242 12.9127 15.5428 12.7042 15.644Z" fill="#E0D2CE"/>
</g>
<g id="g6734">
<path id="path6736" fill-rule="evenodd" clip-rule="evenodd" d="M15.9801 9.61708C16.0654 9.2029 15.5997 8.73764 15.1681 8.84845C15.0316 8.88382 14.8962 8.91794 14.7621 8.95081C14.7487 9.019 14.7353 9.08723 14.7231 9.15542C14.5329 10.153 14.3878 11.1993 14.2342 12.2493C14.1086 13.1055 13.977 13.9642 13.81 14.8022C13.1333 18.2042 11.8764 21.259 8.08601 22.3857C8.03238 22.4052 7.98116 22.421 7.93119 22.4332C8.16769 22.499 8.41519 22.5538 8.67485 22.5977C9.02234 22.6951 9.25764 22.7134 9.57947 22.5977C13.1943 21.5234 14.3927 18.6098 15.0377 15.365C15.1974 14.566 15.3229 13.7462 15.4424 12.9301C15.5899 11.9289 15.7277 10.9313 15.9093 9.97883C15.9313 9.85702 15.9557 9.7364 15.9801 9.61708Z" fill="#2ED1E2"/>
</g>
<g id="g6738">
<path id="path6740" d="M2.62184 12.3162C2.52675 11.477 2.39995 10.3844 2.2744 9.61709C2.20732 9.19926 2.65596 8.73765 3.08634 8.84847C5.32105 9.42459 7.22414 9.7121 9.12727 9.7121C11.0304 9.7121 12.9347 9.42459 15.1682 8.84847C15.5998 8.73765 16.0655 9.20292 15.9801 9.61709C14.967 14.5598 15.3145 20.8936 9.57956 22.5977C9.25772 22.7134 9.02243 22.6951 8.67498 22.5977C4.26647 21.8522 3.31553 17.851 2.80107 13.8205" stroke="#0C0E12" stroke-miterlimit="10" stroke-linecap="round" stroke-linejoin="round"/>
</g>
<g id="g6742">
<path id="path6744" d="M13.126 16.0435C13.126 18.1385 11.3302 19.8364 9.11621 19.8364C6.901 19.8364 5.10516 18.1385 5.10516 16.0435C5.10516 15.8242 5.31975 15.5404 5.52699 15.644C7.83974 16.7963 10.2293 16.8364 12.7042 15.644C12.9127 15.5429 13.126 15.8242 13.126 16.0435Z" stroke="#0C0E12" stroke-miterlimit="10" stroke-linecap="round" stroke-linejoin="round"/>
</g>
<g id="g6746">
<path id="path6748" d="M5.14783 13.2555C5.86712 12.5368 7.03265 12.5368 7.75195 13.2555" stroke="#0C0E12" stroke-miterlimit="10" stroke-linecap="round" stroke-linejoin="round"/>
</g>
<g id="g6750">
<path id="path6752" d="M10.3768 13.2555C11.0961 12.5368 12.2616 12.5368 12.9809 13.2555" stroke="#0C0E12" stroke-miterlimit="10" stroke-linecap="round" stroke-linejoin="round"/>
</g>
<g id="g6754">
<path id="path6756" d="M14.5719 3.37475C16.7164 3.01544 18.7061 2.28458 20.6714 1.37227C21.0749 1.18471 21.6175 1.55622 21.6101 1.97886C21.5126 7.02395 23.0085 13.1885 17.6783 15.9071C17.3833 16.0788 17.1492 16.1032 16.7896 16.0715C16.1093 16.0813 15.4948 16.0033 14.9365 15.8498M9.81597 9.69996C9.19056 7.93871 8.70776 6.07267 8.13232 4.46972C7.98967 4.07144 8.34691 3.53549 8.79189 3.5672C10.4073 3.67922 11.8386 3.68171 13.1943 3.5538" stroke="#0C0E12" stroke-miterlimit="10" stroke-linecap="round" stroke-linejoin="round"/>
</g>
<g id="g6758">
<path id="path6760" d="M15.8947 10.0554C17.1285 9.86173 18.3257 9.34898 19.4851 8.50121C19.6729 8.36354 19.9338 8.60107 19.9728 8.81668C20.3544 10.8763 18.8975 12.8727 16.7201 13.2747C16.2666 13.3587 15.8167 13.3672 15.3863 13.3088" stroke="#0C0E12" stroke-miterlimit="10" stroke-linecap="round" stroke-linejoin="round"/>
</g>
<g id="g6762">
<path id="path6764" d="M11.6203 7.52454C12.197 6.68772 13.343 6.4758 14.1818 7.05192" stroke="#0C0E12" stroke-miterlimit="10" stroke-linecap="round" stroke-linejoin="round"/>
</g>
<g id="g6766">
<path id="path6768" d="M16.7615 6.5743C17.3382 5.73752 18.4854 5.5256 19.323 6.10172" stroke="#0C0E12" stroke-miterlimit="10" stroke-linecap="round" stroke-linejoin="round"/>
</g>
</g>
</g>
</g>
</g>
</g>
</g>
</svg>
