<svg width="25" height="24" viewBox="0 0 25 24" fill="none" xmlns="http://www.w3.org/2000/svg">
<g id="download (1) 1">
<path id="Download" d="M23.3333 12C23.3333 14.5732 21.1741 16.6667 18.5208 16.6667H15.0833C14.7033 16.6667 14.3958 16.3682 14.3958 16C14.3958 15.6318 14.7033 15.3333 15.0833 15.3333H18.5208C20.4161 15.3333 21.9583 13.8378 21.9583 12C21.9583 10.1622 20.4161 8.66667 18.5208 8.66667H17.8333C17.4533 8.66667 17.1458 8.36817 17.1458 8C17.1458 5.42683 14.9866 3.33333 12.3333 3.33333C9.6801 3.33333 7.52084 5.42683 7.52084 8C7.52084 8.36817 7.21335 8.66667 6.83334 8.66667H6.14584C4.25057 8.66667 2.70834 10.1622 2.70834 12C2.70834 13.8378 4.25057 15.3333 6.14584 15.3333H9.58334C9.96335 15.3333 10.2708 15.6318 10.2708 16C10.2708 16.3682 9.96335 16.6667 9.58334 16.6667H6.14584C3.4926 16.6667 1.33334 14.5732 1.33334 12C1.33334 9.42683 3.4926 7.33333 6.14584 7.33333H6.18416C6.52723 4.3375 9.15365 2 12.3333 2C15.513 2 18.1394 4.3375 18.4825 7.33333H18.5208C21.1742 7.33333 23.3333 9.42683 23.3333 12ZM14.5973 18.1953L13.0208 19.724V11.3333C13.0208 10.9652 12.7134 10.6667 12.3333 10.6667C11.9533 10.6667 11.6458 10.9652 11.6458 11.3333V19.724L10.0694 18.1953C9.80076 17.9348 9.36574 17.9348 9.09727 18.1953C8.8288 18.4558 8.82863 18.8777 9.09727 19.138L11.8473 21.8047C11.9815 21.9348 12.1575 22 12.3333 22C12.5092 22 12.6852 21.9348 12.8194 21.8047L15.5694 19.138C15.838 18.8775 15.838 18.4557 15.5694 18.1953C15.3008 17.935 14.8657 17.9348 14.5973 18.1953Z" fill="#474747" stroke="#474747" stroke-width="0.4"/>
</g>
</svg>
