<svg width="231" height="36" viewBox="0 0 231 36" fill="none" xmlns="http://www.w3.org/2000/svg">
<g id="Frame" clip-path="url(#clip0_2_744)">
<path id="Vector" d="M0.552475 19.0397C0.247362 19.0397 0 18.9101 0 18.7502V17.2503C0 17.0904 0.247362 16.9608 0.552475 16.9608C0.857587 16.9608 1.10495 17.0904 1.10495 17.2503V18.7502C1.10495 18.9101 0.857587 19.0397 0.552475 19.0397ZM4.697 19.9039V16.0966C4.697 15.9367 4.44964 15.807 4.14453 15.807C3.83941 15.807 3.59205 15.9367 3.59205 16.0966V19.9039C3.59205 20.0638 3.83941 20.1935 4.14453 20.1935C4.44964 20.1935 4.697 20.0638 4.697 19.9039ZM22.6582 19.9039V16.0966C22.6582 15.9367 22.4108 15.807 22.1057 15.807C21.8006 15.807 21.5533 15.9367 21.5533 16.0966V19.9039C21.5533 20.0638 21.8006 20.1935 22.1057 20.1935C22.4108 20.1935 22.6582 20.0638 22.6582 19.9039ZM8.28905 19.5311V16.4689C8.28905 16.309 8.04169 16.1793 7.73657 16.1793C7.43146 16.1793 7.1841 16.309 7.1841 16.4689V19.5311C7.1841 19.691 7.43146 19.8207 7.73657 19.8207C8.04169 19.8207 8.28905 19.691 8.28905 19.5311ZM11.8811 21.2484V14.7516C11.8811 14.5917 11.6337 14.4621 11.3286 14.4621C11.0235 14.4621 10.7761 14.5917 10.7761 14.7516V21.2484C10.7761 21.4083 11.0235 21.5379 11.3286 21.5379C11.6337 21.5379 11.8811 21.4083 11.8811 21.2484ZM26.2503 21.2484V14.7516C26.2503 14.5917 26.0029 14.4621 25.6978 14.4621C25.3927 14.4621 25.1453 14.5917 25.1453 14.7516V21.2484C25.1453 21.4083 25.3927 21.5379 25.6978 21.5379C26.0029 21.5379 26.2503 21.4083 26.2503 21.2484ZM37.0264 21.2484V14.7516C37.0264 14.5917 36.779 14.4621 36.4739 14.4621C36.1688 14.4621 35.9215 14.5917 35.9215 14.7516V21.2484C35.9215 21.4083 36.1688 21.5379 36.4739 21.5379C36.779 21.5379 37.0264 21.4083 37.0264 21.2484ZM15.4741 21.9103V14.0897C15.4741 13.9298 15.2267 13.8002 14.9216 13.8002C14.6165 13.8002 14.3692 13.9298 14.3692 14.0897V21.9103C14.3692 22.0702 14.6165 22.1998 14.9216 22.1998C15.2258 22.1998 15.4741 22.0707 15.4741 21.9103ZM40.6185 23.1725V12.8275C40.6185 12.6676 40.3711 12.5379 40.066 12.5379C39.7609 12.5379 39.5135 12.6676 39.5135 12.8275V23.1725C39.5135 23.3324 39.7609 23.4621 40.066 23.4621C40.3711 23.4621 40.6185 23.3324 40.6185 23.1725ZM19.0662 24.745V11.255C19.0662 11.0951 18.8188 10.9655 18.5137 10.9655C18.2086 10.9655 17.9612 11.0951 17.9612 11.255V24.745C17.9612 24.9049 18.2086 25.0345 18.5137 25.0345C18.8188 25.0345 19.0662 24.9049 19.0662 24.745ZM44.2105 20.3171V15.6824C44.2105 15.5225 43.9632 15.3928 43.658 15.3928C43.3529 15.3928 43.1056 15.5225 43.1056 15.6824V20.3171C43.1056 20.477 43.3529 20.6067 43.658 20.6067C43.9632 20.6067 44.2105 20.4775 44.2105 20.3171ZM47.8026 21.9103V14.0897C47.8026 13.9298 47.5552 13.8002 47.2501 13.8002C46.945 13.8002 46.6976 13.9298 46.6976 14.0897V21.9103C46.6976 22.0702 46.945 22.1998 47.2501 22.1998C47.5552 22.1998 47.8026 22.0707 47.8026 21.9103ZM51.3946 24.7863V11.2142C51.3946 11.0543 51.1472 10.9246 50.8421 10.9246C50.537 10.9246 50.2897 11.0543 50.2897 11.2142V24.7863C50.2897 24.9462 50.537 25.0759 50.8421 25.0759C51.1472 25.0759 51.3946 24.9462 51.3946 24.7863ZM72.9469 24.7863V11.2142C72.9469 11.0543 72.6995 10.9246 72.3944 10.9246C72.0893 10.9246 71.842 11.0543 71.842 11.2142V24.7863C71.842 24.9462 72.0893 25.0759 72.3944 25.0759C72.6995 25.0759 72.9469 24.9462 72.9469 24.7863ZM54.9867 25.7383V10.2622C54.9867 10.1023 54.7393 9.97265 54.4342 9.97265C54.1291 9.97265 53.8817 10.1023 53.8817 10.2622V25.7383C53.8817 25.8982 54.1291 26.0279 54.4342 26.0279C54.7393 26.0279 54.9867 25.8982 54.9867 25.7383ZM80.132 21.2484V14.7516C80.132 14.5917 79.8846 14.4621 79.5795 14.4621C79.2744 14.4621 79.027 14.5917 79.027 14.7516V21.2484C79.027 21.4083 79.2744 21.5379 79.5795 21.5379C79.8846 21.5379 80.132 21.4083 80.132 21.2484ZM83.724 23.1725V12.8275C83.724 12.6676 83.4767 12.5379 83.1715 12.5379C82.8664 12.5379 82.6191 12.6676 82.6191 12.8275V23.1725C82.6191 23.3324 82.8664 23.4621 83.1715 23.4621C83.4767 23.4621 83.724 23.3324 83.724 23.1725ZM87.3161 20.3171V15.6824C87.3161 15.5225 87.0687 15.3928 86.7636 15.3928C86.4585 15.3928 86.2111 15.5225 86.2111 15.6824V20.3171C86.2111 20.477 86.4585 20.6067 86.7636 20.6067C87.0687 20.6067 87.3161 20.4775 87.3161 20.3171ZM90.9081 24.4967V11.5038C90.9081 11.3438 90.6608 11.2142 90.3557 11.2142C90.0505 11.2142 89.8032 11.3438 89.8032 11.5038V24.4967C89.8032 24.6567 90.0505 24.7863 90.3557 24.7863C90.6608 24.7863 90.9081 24.6567 90.9081 24.4967ZM94.5002 27.0621V8.93795C94.5002 8.77803 94.2528 8.64837 93.9477 8.64837C93.6426 8.64837 93.3952 8.77803 93.3952 8.93795V27.0621C93.3952 27.222 93.6426 27.3516 93.9477 27.3516C94.2528 27.3516 94.5002 27.2225 94.5002 27.0621ZM98.0922 25.7383V10.2622C98.0922 10.1023 97.8449 9.97265 97.5397 9.97265C97.2346 9.97265 96.9873 10.1023 96.9873 10.2622V25.7383C96.9873 25.8982 97.2346 26.0279 97.5397 26.0279C97.8449 26.0279 98.0922 25.8982 98.0922 25.7383ZM29.8423 24.7863V11.2142C29.8423 11.0543 29.5949 10.9246 29.2898 10.9246C28.9847 10.9246 28.7374 11.0543 28.7374 11.2142V24.7863C28.7374 24.9462 28.9847 25.0759 29.2898 25.0759C29.5949 25.0759 29.8423 24.9462 29.8423 24.7863ZM33.4344 27.8072V8.19333C33.4344 8.03341 33.187 7.90376 32.8819 7.90376C32.5768 7.90376 32.3294 8.03341 32.3294 8.19333V27.8072C32.3294 27.9671 32.5768 28.0968 32.8819 28.0968C33.187 28.0968 33.4344 27.9671 33.4344 27.8072ZM76.5399 30.8068V5.19316C76.5399 5.03324 76.2926 4.90359 75.9874 4.90359C75.6823 4.90359 75.435 5.03324 75.435 5.19316V30.8068C75.435 30.9668 75.6823 31.0964 75.9874 31.0964C76.2926 31.0964 76.5399 30.9673 76.5399 30.8068ZM58.5787 19.9039V16.0966C58.5787 15.9367 58.3313 15.807 58.0262 15.807C57.7211 15.807 57.4738 15.9367 57.4738 16.0966V19.9039C57.4738 20.0638 57.7211 20.1935 58.0262 20.1935C58.3313 20.1935 58.5787 20.0638 58.5787 19.9039ZM62.1708 22.4279V13.5726C62.1708 13.4127 61.9234 13.2831 61.6183 13.2831C61.3132 13.2831 61.0658 13.4127 61.0658 13.5726V22.4279C61.0658 22.5878 61.3132 22.7174 61.6183 22.7174C61.9234 22.7174 62.1708 22.5878 62.1708 22.4279ZM65.7628 23.9171V12.0829C65.7628 11.923 65.5154 11.7933 65.2103 11.7933C64.9052 11.7933 64.6579 11.923 64.6579 12.0829V23.9171C64.6579 24.077 64.9052 24.2067 65.2103 24.2067C65.5154 24.2072 65.7628 24.0775 65.7628 23.9171ZM69.3549 26.4002V9.59983C69.3549 9.43991 69.1075 9.31026 68.8024 9.31026C68.4973 9.31026 68.2499 9.43991 68.2499 9.59983V26.3997C68.2499 26.5596 68.4973 26.6892 68.8024 26.6892C69.1075 26.6897 69.3549 26.5601 69.3549 26.4002ZM108.868 24.7863V11.2142C108.868 11.0543 108.621 10.9246 108.316 10.9246C108.011 10.9246 107.763 11.0543 107.763 11.2142V24.7863C107.763 24.9462 108.011 25.0759 108.316 25.0759C108.621 25.0759 108.868 24.9462 108.868 24.7863ZM112.46 30.8068V5.19316C112.46 5.03324 112.213 4.90359 111.908 4.90359C111.603 4.90359 111.355 5.03324 111.355 5.19316V30.8068C111.355 30.9668 111.603 31.0964 111.908 31.0964C112.213 31.0969 112.46 30.9673 112.46 30.8068ZM116.052 35.7104V0.289574C116.052 0.129652 115.805 0 115.5 0C115.195 0 114.948 0.129652 114.948 0.289574V35.7104C114.948 35.8703 115.195 36 115.5 36C115.805 36 116.052 35.8709 116.052 35.7104ZM101.684 23.9171V12.0829C101.684 11.923 101.437 11.7933 101.132 11.7933C100.827 11.7933 100.579 11.923 100.579 12.0829V23.9171C100.579 24.077 100.827 24.2067 101.132 24.2067C101.437 24.2072 101.684 24.0775 101.684 23.9171ZM105.276 26.4002V9.59983C105.276 9.43991 105.029 9.31026 104.724 9.31026C104.419 9.31026 104.171 9.43991 104.171 9.59983V26.3997C104.171 26.5596 104.419 26.6892 104.724 26.6892C105.029 26.6892 105.276 26.5601 105.276 26.4002ZM231 18.7502V17.2503C231 17.0904 230.753 16.9608 230.448 16.9608C230.142 16.9608 229.895 17.0904 229.895 17.2503V18.7502C229.895 18.9101 230.142 19.0397 230.448 19.0397C230.753 19.0397 231 18.9101 231 18.7502ZM227.408 19.9039V16.0966C227.408 15.9367 227.161 15.807 226.855 15.807C226.55 15.807 226.303 15.9367 226.303 16.0966V19.9039C226.303 20.0638 226.55 20.1935 226.855 20.1935C227.161 20.1935 227.408 20.0638 227.408 19.9039ZM209.448 19.9039V16.0966C209.448 15.9367 209.2 15.807 208.895 15.807C208.59 15.807 208.343 15.9367 208.343 16.0966V19.9039C208.343 20.0638 208.59 20.1935 208.895 20.1935C209.2 20.1935 209.448 20.0638 209.448 19.9039ZM223.816 19.5311V16.4689C223.816 16.309 223.569 16.1793 223.263 16.1793C222.958 16.1793 222.711 16.309 222.711 16.4689V19.5311C222.711 19.691 222.958 19.8207 223.263 19.8207C223.569 19.8207 223.816 19.691 223.816 19.5311ZM220.224 21.2484V14.7516C220.224 14.5917 219.976 14.4621 219.671 14.4621C219.366 14.4621 219.119 14.5917 219.119 14.7516V21.2484C219.119 21.4083 219.366 21.5379 219.671 21.5379C219.976 21.5379 220.224 21.4083 220.224 21.2484ZM205.856 21.2484V14.7516C205.856 14.5917 205.608 14.4621 205.303 14.4621C204.998 14.4621 204.751 14.5917 204.751 14.7516V21.2484C204.751 21.4083 204.998 21.5379 205.303 21.5379C205.608 21.5379 205.856 21.4083 205.856 21.2484ZM195.079 21.2484V14.7516C195.079 14.5917 194.831 14.4621 194.526 14.4621C194.221 14.4621 193.974 14.5917 193.974 14.7516V21.2484C193.974 21.4083 194.221 21.5379 194.526 21.5379C194.831 21.5379 195.079 21.4083 195.079 21.2484ZM216.632 21.9103V14.0897C216.632 13.9298 216.384 13.8002 216.079 13.8002C215.774 13.8002 215.527 13.9298 215.527 14.0897V21.9103C215.527 22.0702 215.774 22.1998 216.079 22.1998C216.384 22.1998 216.632 22.0707 216.632 21.9103ZM191.486 23.1725V12.8275C191.486 12.6676 191.239 12.5379 190.934 12.5379C190.629 12.5379 190.382 12.6676 190.382 12.8275V23.1725C190.382 23.3324 190.629 23.4621 190.934 23.4621C191.239 23.4621 191.486 23.3324 191.486 23.1725ZM213.04 24.745V11.255C213.04 11.0951 212.792 10.9655 212.487 10.9655C212.182 10.9655 211.935 11.0951 211.935 11.255V24.745C211.935 24.9049 212.182 25.0345 212.487 25.0345C212.792 25.0345 213.04 24.9049 213.04 24.745ZM187.894 20.3171V15.6824C187.894 15.5225 187.647 15.3928 187.342 15.3928C187.037 15.3928 186.789 15.5225 186.789 15.6824V20.3171C186.789 20.477 187.037 20.6067 187.342 20.6067C187.647 20.6067 187.894 20.4775 187.894 20.3171ZM184.302 21.9103V14.0897C184.302 13.9298 184.055 13.8002 183.75 13.8002C183.445 13.8002 183.197 13.9298 183.197 14.0897V21.9103C183.197 22.0702 183.445 22.1998 183.75 22.1998C184.055 22.1998 184.302 22.0707 184.302 21.9103ZM180.71 24.7863V11.2142C180.71 11.0543 180.463 10.9246 180.158 10.9246C179.853 10.9246 179.605 11.0543 179.605 11.2142V24.7863C179.605 24.9462 179.853 25.0759 180.158 25.0759C180.463 25.0759 180.71 24.9462 180.71 24.7863ZM159.158 24.7863V11.2142C159.158 11.0543 158.911 10.9246 158.606 10.9246C158.3 10.9246 158.053 11.0543 158.053 11.2142V24.7863C158.053 24.9462 158.3 25.0759 158.606 25.0759C158.911 25.0759 159.158 24.9462 159.158 24.7863ZM177.118 25.7383V10.2622C177.118 10.1023 176.871 9.97265 176.566 9.97265C176.261 9.97265 176.013 10.1023 176.013 10.2622V25.7383C176.013 25.8982 176.261 26.0279 176.566 26.0279C176.871 26.0279 177.118 25.8982 177.118 25.7383ZM151.974 21.2484V14.7516C151.974 14.5917 151.727 14.4621 151.421 14.4621C151.116 14.4621 150.869 14.5917 150.869 14.7516V21.2484C150.869 21.4083 151.116 21.5379 151.421 21.5379C151.727 21.5379 151.974 21.4083 151.974 21.2484ZM148.382 23.1725V12.8275C148.382 12.6676 148.135 12.5379 147.829 12.5379C147.524 12.5379 147.277 12.6676 147.277 12.8275V23.1725C147.277 23.3324 147.524 23.4621 147.829 23.4621C148.135 23.4621 148.382 23.3324 148.382 23.1725ZM144.79 20.3171V15.6824C144.79 15.5225 144.542 15.3928 144.237 15.3928C143.932 15.3928 143.685 15.5225 143.685 15.6824V20.3171C143.685 20.477 143.932 20.6067 144.237 20.6067C144.542 20.6067 144.79 20.4775 144.79 20.3171ZM141.198 24.4967V11.5038C141.198 11.3438 140.95 11.2142 140.645 11.2142C140.34 11.2142 140.093 11.3438 140.093 11.5038V24.4967C140.093 24.6567 140.34 24.7863 140.645 24.7863C140.95 24.7863 141.198 24.6567 141.198 24.4967ZM137.606 27.0621V8.93795C137.606 8.77803 137.358 8.64837 137.053 8.64837C136.748 8.64837 136.501 8.77803 136.501 8.93795V27.0621C136.501 27.222 136.748 27.3516 137.053 27.3516C137.357 27.3516 137.606 27.2225 137.606 27.0621ZM134.013 25.7383V10.2622C134.013 10.1023 133.765 9.97265 133.46 9.97265C133.155 9.97265 132.908 10.1023 132.908 10.2622V25.7383C132.908 25.8982 133.155 26.0279 133.46 26.0279C133.765 26.0279 134.013 25.8982 134.013 25.7383ZM202.264 24.7863V11.2142C202.264 11.0543 202.016 10.9246 201.711 10.9246C201.406 10.9246 201.159 11.0543 201.159 11.2142V24.7863C201.159 24.9462 201.406 25.0759 201.711 25.0759C202.015 25.0759 202.264 24.9462 202.264 24.7863ZM198.671 27.8072V8.19333C198.671 8.03341 198.423 7.90376 198.118 7.90376C197.813 7.90376 197.566 8.03341 197.566 8.19333V27.8072C197.566 27.9671 197.813 28.0968 198.118 28.0968C198.423 28.0968 198.671 27.9671 198.671 27.8072ZM155.566 30.8068V5.19316C155.566 5.03324 155.319 4.90359 155.014 4.90359C154.708 4.90359 154.461 5.03324 154.461 5.19316V30.8068C154.461 30.9668 154.708 31.0964 155.014 31.0964C155.319 31.0969 155.566 30.9673 155.566 30.8068ZM173.526 19.9039V16.0966C173.526 15.9367 173.279 15.807 172.974 15.807C172.669 15.807 172.421 15.9367 172.421 16.0966V19.9039C172.421 20.0638 172.669 20.1935 172.974 20.1935C173.279 20.1935 173.526 20.0638 173.526 19.9039ZM169.934 22.4279V13.5726C169.934 13.4127 169.687 13.2831 169.382 13.2831C169.077 13.2831 168.829 13.4127 168.829 13.5726V22.4279C168.829 22.5878 169.077 22.7174 169.382 22.7174C169.687 22.7174 169.934 22.5878 169.934 22.4279ZM166.342 23.9171V12.0829C166.342 11.923 166.095 11.7933 165.79 11.7933C165.485 11.7933 165.237 11.923 165.237 12.0829V23.9171C165.237 24.077 165.485 24.2067 165.79 24.2067C166.095 24.2067 166.342 24.0775 166.342 23.9171ZM162.75 26.4002V9.59983C162.75 9.43991 162.503 9.31026 162.198 9.31026C161.893 9.31026 161.645 9.43991 161.645 9.59983V26.3997C161.645 26.5596 161.893 26.6892 162.198 26.6892C162.503 26.6892 162.75 26.5601 162.75 26.4002ZM123.237 24.7863V11.2142C123.237 11.0543 122.989 10.9246 122.684 10.9246C122.379 10.9246 122.132 11.0543 122.132 11.2142V24.7863C122.132 24.9462 122.379 25.0759 122.684 25.0759C122.989 25.0759 123.237 24.9462 123.237 24.7863ZM119.645 30.8068V5.19316C119.645 5.03324 119.397 4.90359 119.092 4.90359C118.787 4.90359 118.54 5.03324 118.54 5.19316V30.8068C118.54 30.9668 118.787 31.0964 119.092 31.0964C119.397 31.0969 119.645 30.9673 119.645 30.8068ZM130.421 23.9171V12.0829C130.421 11.923 130.173 11.7933 129.868 11.7933C129.563 11.7933 129.316 11.923 129.316 12.0829V23.9171C129.316 24.077 129.563 24.2067 129.868 24.2067C130.173 24.2072 130.421 24.0775 130.421 23.9171ZM126.829 26.4002V9.59983C126.829 9.43991 126.581 9.31026 126.276 9.31026C125.971 9.31026 125.724 9.43991 125.724 9.59983V26.3997C125.724 26.5596 125.971 26.6892 126.276 26.6892C126.581 26.6892 126.829 26.5601 126.829 26.4002Z" fill="url(#paint0_linear_2_744)"/>
</g>
<defs>
<linearGradient id="paint0_linear_2_744" x1="8.60542e-07" y1="18" x2="231" y2="18" gradientUnits="userSpaceOnUse">
<stop offset="0.498475" stop-color="#0C0E12"/>
<stop offset="0.503827" stop-color="#0C0E12" stop-opacity="0.28"/>
</linearGradient>
<clipPath id="clip0_2_744">
<rect width="231" height="36" fill="white"/>
</clipPath>
</defs>
</svg>
