<svg width="24" height="24" viewBox="0 0 24 24" fill="none" xmlns="http://www.w3.org/2000/svg">
<g id="music-notes 1" clip-path="url(#clip0_2_511)">
<g id="Group">
<g id="Group_2">
<path id="Vector" d="M6.91379 0.445446C6.73781 1.08178 6.2622 2.17464 5.01161 2.75015C4.93216 2.78674 4.93216 2.8996 5.01161 2.93618C6.26225 3.51169 6.73781 4.60455 6.91379 5.24089C6.94167 5.34167 7.08377 5.34167 7.11161 5.24089C7.28759 4.60455 7.7632 3.51169 9.01379 2.93618C9.09324 2.8996 9.09324 2.78674 9.01379 2.75015C7.76315 2.17464 7.28759 1.08178 7.11161 0.445446C7.08377 0.344662 6.94167 0.344662 6.91379 0.445446Z" fill="#6CE79A"/>
<path id="Vector_2" d="M9.01393 2.93613C8.56194 3.14388 8.21149 3.419 7.94011 3.71611C6.98561 3.21921 6.48637 2.43502 6.22809 1.8043C6.6141 1.32377 6.81296 0.809556 6.91402 0.445534C6.94163 0.344469 7.08387 0.344469 7.11147 0.445534C7.2874 1.08187 7.76325 2.17487 9.01393 2.75038C9.09347 2.78687 9.09347 2.89964 9.01393 2.93613Z" fill="#00D8A2"/>
<path id="Vector_3" d="M17.0658 17.2761C16.8921 17.8911 16.4323 18.9245 15.2469 19.4756C15.1656 19.5134 15.1656 19.6285 15.2469 19.6663C16.4324 20.2174 16.8921 21.2508 17.0658 21.8659C17.0945 21.9673 17.2395 21.9673 17.2681 21.8659C17.4418 21.2509 17.9016 20.2174 19.087 19.6663C19.1683 19.6285 19.1683 19.5134 19.087 19.4756C17.9015 18.9245 17.4418 17.8911 17.2681 17.2761C17.2395 17.1746 17.0945 17.1746 17.0658 17.2761Z" fill="#6CE79A"/>
<path id="Vector_4" d="M19.0872 19.6662C18.689 19.8515 18.3727 20.0911 18.1219 20.3508C17.2184 19.8487 16.737 19.0893 16.4834 18.4726C16.8011 18.0455 16.9737 17.6019 17.0659 17.2762C17.0945 17.1747 17.2395 17.1747 17.268 17.2762C17.4416 17.8911 17.9016 18.9246 19.0872 19.4758C19.1682 19.5132 19.1682 19.6283 19.0872 19.6662Z" fill="#00D8A2"/>
<path id="Vector_5" d="M12.5582 20.644C12.4296 21.0516 12.1237 21.6679 11.409 22.0192C11.3376 22.0543 11.3376 22.1545 11.409 22.1896C12.1236 22.5409 12.4296 23.1572 12.5582 23.5648C12.5856 23.6519 12.7102 23.6519 12.7377 23.5648C12.8662 23.1572 13.1721 22.5409 13.8869 22.1896C13.9582 22.1545 13.9582 22.0543 13.8869 22.0192C13.1722 21.6679 12.8662 21.0516 12.7377 20.644C12.7102 20.557 12.5856 20.557 12.5582 20.644Z" fill="#6CE79A"/>
<path id="Vector_6" d="M13.887 22.1898C13.6325 22.3152 13.4294 22.4738 13.269 22.6446C13.2619 22.6371 13.253 22.6301 13.2423 22.6249C12.6205 22.3194 12.3084 21.8136 12.1535 21.4187C12.3654 21.1496 12.488 20.8661 12.5582 20.6439C12.5858 20.5568 12.7103 20.5568 12.7379 20.6439C12.8661 21.0519 13.1721 21.6681 13.887 22.0195C13.9582 22.0546 13.9582 22.1547 13.887 22.1898Z" fill="#00D8A2"/>
<path id="Vector_7" d="M9.63342 7.42257L5.17093 8.07589C4.79039 8.13162 4.50835 8.45798 4.50835 8.84254V17.5995C4.09028 17.3724 3.60826 17.248 3.09615 17.2605C1.62729 17.2961 0.418346 18.4797 0.35373 19.9476C0.282937 21.5544 1.55977 22.8804 3.14869 22.89C4.71777 22.8995 5.98137 21.5978 5.98137 20.0287V10.9092C5.98137 10.7196 6.12043 10.5587 6.308 10.5312L9.32264 10.0899C9.75226 10.027 10.0707 9.6585 10.0707 9.22434V7.80049C10.0707 7.56753 9.86395 7.38884 9.63342 7.42257Z" fill="#FFE270"/>
<path id="Vector_8" d="M5.56335 10.6441L6.21073 10.5591C6.07411 10.6185 5.98142 10.7541 5.98142 10.9091V20.0288C5.98142 21.5977 4.71759 22.8997 3.14865 22.89C3.02798 22.8895 2.90871 22.8808 2.79188 22.8654C4.17591 22.6796 5.237 21.4659 5.237 20.0288V11.0216C5.237 10.8323 5.37606 10.6711 5.56335 10.6441Z" fill="#FFD250"/>
<path id="Vector_9" d="M10.0708 7.80059V9.2242C10.0708 9.65817 9.75212 10.027 9.3225 10.0898L7.77335 10.3166C8.05432 10.1693 8.35471 9.8327 8.35471 9.49965V7.91724C8.35471 7.78885 8.27086 7.70495 8.17579 7.63589L9.63337 7.42263C9.86414 7.3888 10.0708 7.56744 10.0708 7.80059Z" fill="#FFD250"/>
<path id="Vector_10" d="M12.0673 4.21755V13.011C11.6492 12.7838 11.1672 12.6594 10.6552 12.6719C9.18634 12.7075 7.9774 13.8909 7.91264 15.3588C7.84176 16.9657 9.11855 18.2917 10.7075 18.3014C12.2766 18.311 13.5403 17.0092 13.5403 15.4401V6.28419C13.5403 6.0946 13.6793 5.93369 13.8669 5.90622L21.7388 4.7538C21.9693 4.72007 22.1761 4.89875 22.1761 5.13176V11.1256C21.7581 10.8985 21.2762 10.7741 20.7642 10.7865C19.2954 10.822 18.0864 12.0053 18.0214 13.473C17.9504 15.08 19.2272 16.4063 20.8162 16.4161C22.3853 16.4257 23.6491 15.1239 23.6491 13.5547V2.74883C23.6491 2.27621 23.2297 1.91373 22.762 1.98219L12.7298 3.4509C12.3493 3.50658 12.0673 3.83299 12.0673 4.21755Z" fill="#DD98EA"/>
<path id="Vector_11" d="M23.6489 2.74883V13.5549C23.6489 15.1238 22.3855 16.4258 20.8161 16.4161C20.6945 16.4156 20.5743 16.407 20.4565 16.391C21.8401 16.2042 22.8997 14.9915 22.8997 13.5549V2.74883C22.8997 2.42154 22.6989 2.14731 22.4203 2.03244L22.7621 1.98224C23.2299 1.91369 23.6489 2.27626 23.6489 2.74883Z" fill="#D181E5"/>
</g>
<g id="Group_3">
<path id="Vector_12" d="M6.91379 0.445446C6.73781 1.08178 6.2622 2.17464 5.01161 2.75015C4.93216 2.78674 4.93216 2.8996 5.01161 2.93618C6.26225 3.51169 6.73781 4.60455 6.91379 5.24089C6.94167 5.34167 7.08377 5.34167 7.11161 5.24089C7.28759 4.60455 7.7632 3.51169 9.01379 2.93618C9.09324 2.8996 9.09324 2.78674 9.01379 2.75015C7.76315 2.17464 7.28759 1.08178 7.11161 0.445446C7.08377 0.344662 6.94167 0.344662 6.91379 0.445446Z" stroke="#0C0E12" stroke-miterlimit="10" stroke-linecap="round" stroke-linejoin="round"/>
<path id="Vector_13" d="M17.0658 17.2761C16.8921 17.8911 16.4323 18.9245 15.2469 19.4756C15.1656 19.5134 15.1656 19.6285 15.2469 19.6663C16.4324 20.2174 16.8921 21.2508 17.0658 21.8659C17.0945 21.9673 17.2395 21.9673 17.2681 21.8659C17.4418 21.2509 17.9016 20.2174 19.087 19.6663C19.1683 19.6285 19.1683 19.5134 19.087 19.4756C17.9015 18.9245 17.4418 17.8911 17.2681 17.2761C17.2395 17.1746 17.0945 17.1746 17.0658 17.2761Z" stroke="#0C0E12" stroke-miterlimit="10" stroke-linecap="round" stroke-linejoin="round"/>
<path id="Vector_14" d="M12.5582 20.644C12.4296 21.0516 12.1237 21.6679 11.409 22.0192C11.3376 22.0543 11.3376 22.1545 11.409 22.1896C12.1236 22.5409 12.4296 23.1572 12.5582 23.5648C12.5856 23.6519 12.7102 23.6519 12.7377 23.5648C12.8662 23.1572 13.1721 22.5409 13.8869 22.1896C13.9582 22.1545 13.9582 22.0543 13.8869 22.0192C13.1722 21.6679 12.8662 21.0516 12.7377 20.644C12.7102 20.557 12.5856 20.557 12.5582 20.644Z" stroke="#0C0E12" stroke-miterlimit="10" stroke-linecap="round" stroke-linejoin="round"/>
<path id="Vector_15" d="M18.8578 2.55378L12.7298 3.45092C12.3493 3.50664 12.0673 3.833 12.0673 4.21756V13.011C11.6492 12.7838 11.1672 12.6594 10.6552 12.6719C9.18634 12.7075 7.9774 13.8909 7.91264 15.3588C7.84176 16.9657 9.11855 18.2918 10.7075 18.3014C12.2766 18.311 13.5403 17.0093 13.5403 15.4401V6.2842C13.5403 6.09461 13.6793 5.9337 13.8669 5.90624L21.7388 4.75382C21.9693 4.72008 22.1761 4.89877 22.1761 5.13178V11.1256C21.7581 10.8985 21.2762 10.7742 20.7642 10.7865C19.2954 10.822 18.0864 12.0053 18.0214 13.4731C17.9504 15.08 19.2272 16.4063 20.8162 16.4161C22.3853 16.4257 23.6491 15.1239 23.6491 13.5548V2.74884C23.6491 2.27623 23.2297 1.91375 22.762 1.9822L20.4906 2.31473" stroke="#0C0E12" stroke-miterlimit="10" stroke-linecap="round" stroke-linejoin="round"/>
<path id="Vector_16" d="M0.811236 18.5371C0.54201 18.9464 0.376563 19.4293 0.35373 19.9476C0.282937 21.5544 1.55977 22.8804 3.14869 22.89C4.71777 22.8995 5.98137 21.5978 5.98137 20.0287V10.9092C5.98137 10.7196 6.12043 10.5587 6.308 10.5312L9.32264 10.0899C9.75226 10.027 10.0707 9.65851 10.0707 9.22435V7.80051C10.0707 7.56754 9.86395 7.38881 9.63342 7.42254L5.17093 8.07586C4.79039 8.13159 4.50834 8.45794 4.50834 8.84251V17.5995C4.09028 17.3723 3.60826 17.248 3.09615 17.2604C2.72169 17.2695 2.36413 17.3532 2.03815 17.4972" stroke="#0C0E12" stroke-miterlimit="10" stroke-linecap="round" stroke-linejoin="round"/>
</g>
</g>
</g>
<defs>
<clipPath id="clip0_2_511">
<rect width="24" height="24" fill="white"/>
</clipPath>
</defs>
</svg>
