<svg width="24" height="24" viewBox="0 0 24 24" fill="none" xmlns="http://www.w3.org/2000/svg">
<g id="world-news 1" clip-path="url(#clip0_2_548)">
<g id="Layer_16">
<g id="Group">
<path id="Vector" d="M21.9656 10.8326C21.9656 11.9666 21.7744 13.0575 21.4204 14.0715C21.315 14.0524 21.2051 14.0426 21.0904 14.0426H2.91C2.79525 14.0426 2.6805 14.0524 2.57025 14.076C2.22112 13.0571 2.0295 11.9663 2.0295 10.8323C2.0295 9.55013 2.26875 8.32538 2.7135 7.20113C4.04362 3.80925 7.16775 1.32113 10.9282 0.924004C11.2777 0.886129 11.6362 0.867004 12 0.867004C14.0332 0.867004 15.9326 1.47938 17.5162 2.532C18.4635 3.1635 19.3054 3.96263 19.9897 4.87163C20.6929 5.814 21.2385 6.89063 21.5685 8.04825C21.8269 8.92838 21.9656 9.86625 21.9656 10.8326Z" fill="#69D6F4"/>
<g id="Group_2">
<path id="Vector_2" d="M2.56988 14.4514C2.41275 14.4514 2.268 14.352 2.2155 14.1979C1.8435 13.1115 1.65488 11.979 1.65488 10.8326C1.65488 9.52238 1.89413 8.2545 2.3655 7.06313C3.78075 3.45263 7.047 0.957004 10.8893 0.551629C11.2489 0.512254 11.6231 0.492004 12 0.492004C14.0441 0.492004 16.0234 1.08938 17.724 2.21963C18.7088 2.87625 19.572 3.69263 20.2894 4.64625C21.0405 5.65238 21.5921 6.762 21.9293 7.9455C22.2023 8.87475 22.341 9.84713 22.341 10.8326C22.341 11.9869 22.1501 13.1183 21.7744 14.1953C21.7133 14.3696 21.5336 14.472 21.3529 14.4405C21.2708 14.4255 21.1823 14.4176 21.0904 14.4176H2.91C2.81325 14.4176 2.72588 14.4259 2.65013 14.4424C2.62313 14.4488 2.5965 14.4514 2.56988 14.4514ZM12 1.242C11.6505 1.242 11.304 1.26075 10.9695 1.29713C7.4055 1.67325 4.37625 3.98813 3.06263 7.33838C2.62575 8.44238 2.4045 9.61763 2.4045 10.8326C2.4045 11.796 2.54813 12.7489 2.832 13.6691C2.8575 13.6684 2.88375 13.668 2.91 13.668H21.09C21.1133 13.668 21.1358 13.6684 21.1586 13.6688C21.4455 12.7556 21.5906 11.8031 21.5906 10.8326C21.5906 9.91838 21.462 9.01725 21.2081 8.15363C20.8954 7.05525 20.3843 6.02738 19.6886 5.0955C19.0234 4.21088 18.222 3.453 17.3078 2.84363C15.7316 1.79625 13.896 1.242 12 1.242Z" fill="#0C0E12"/>
</g>
<g id="Group_3">
<path id="Vector_3" d="M12.5932 3.1875C12.2966 3.288 11.8661 3.35025 11.2582 3.29288C10.311 3.19725 9.72712 3.64688 9.40687 4.02488C9.18675 4.28813 8.871 4.422 8.52675 4.42688C7.93837 4.43175 6.95737 4.6755 5.93362 5.92912C4.54125 7.63237 6.8475 8.91937 7.56975 9.26363C7.69425 9.32588 7.833 9.369 7.96687 9.3975C8.78962 9.58875 9.29212 10.0147 9.59362 10.431C9.93825 10.9046 9.804 11.5841 9.31612 11.8999C8.34 12.5363 7.79962 13.3065 7.50787 14.0434H5.37412C5.34075 13.8521 5.31675 13.6605 5.3025 13.4741C5.23537 12.5891 4.66612 11.9288 4.269 11.5654C4.0395 11.3595 3.92437 11.0437 3.95812 10.7378C4.15425 8.99137 3.46537 7.88137 2.71425 7.20225C4.04437 3.81037 7.1685 1.32225 10.929 0.925125C11.7232 1.437 12.369 1.97775 12.7661 2.33663C13.0477 2.59425 12.957 3.063 12.5932 3.1875Z" fill="#B4DD7F"/>
<path id="Vector_4" d="M21.9656 10.8326C21.9656 11.9666 21.7744 13.0575 21.4204 14.0715C21.315 14.0524 21.2051 14.0426 21.0904 14.0426H14.8084C14.7604 13.6406 14.9756 13.239 15.3585 13.0665L15.3825 13.0616C15.7462 12.894 15.8036 12.4159 15.4972 12.162C15.2006 11.9228 14.8942 11.6119 14.6122 11.3055C13.9616 10.5975 14.043 9.48263 14.7701 8.86088C15.5884 8.148 16.416 7.65038 17.0235 7.33463C17.4109 7.1385 17.8702 7.34438 17.985 7.76513C18.009 7.86563 18.0472 7.96125 18.0855 8.06175C18.4777 9.0855 19.7887 9.41588 20.688 8.76975C21.0229 8.5305 21.3146 8.28638 21.5685 8.0475C21.8269 8.92838 21.9656 9.86625 21.9656 10.8326Z" fill="#B4DD7F"/>
<path id="Vector_5" d="M19.9905 4.87237C18.4845 5.25187 17.0858 4.78387 16.2503 4.38525C15.9086 4.22062 15.8831 3.74625 16.206 3.54375C16.6808 3.25912 17.1364 2.88562 17.5159 2.53125C18.4654 3.16387 19.3073 3.96112 19.9905 4.87237Z" fill="#B4DD7F"/>
</g>
<g id="Group_4">
<path id="Vector_6" d="M7.50788 14.418H5.37413C5.19188 14.418 5.03626 14.2867 5.00476 14.1071C4.96913 13.9039 4.94363 13.7003 4.92863 13.5023C4.87313 12.7688 4.40176 12.1943 4.01588 11.8414C3.70013 11.5586 3.53813 11.1296 3.58538 10.6965C3.73426 9.37013 3.35663 8.28825 2.46263 7.47975C2.34676 7.37512 2.30813 7.20975 2.36513 7.06463C3.78076 3.45263 7.04701 0.957001 10.8893 0.551626C10.9718 0.543376 11.0595 0.563251 11.1315 0.609376C11.9468 1.13475 12.6068 1.68713 13.0166 2.05763C13.2514 2.2725 13.3519 2.58413 13.2874 2.89313C13.2236 3.19875 13.0095 3.44138 12.7144 3.54225C12.714 3.54225 12.714 3.54225 12.7136 3.54263C12.3083 3.67988 11.8061 3.7215 11.223 3.666C10.5964 3.603 10.0841 3.8055 9.69263 4.26713C9.41026 4.60463 8.99738 4.79513 8.53126 4.8015C7.98188 4.806 7.13813 5.046 6.22388 6.16575C5.92501 6.53138 5.81738 6.87563 5.89426 7.21875C6.08738 8.08088 7.34888 8.74238 7.73101 8.92463C7.82101 8.96963 7.92713 9.00525 8.04526 9.03038C8.83201 9.213 9.46988 9.62063 9.89701 10.2105C10.1194 10.5161 10.2068 10.9088 10.1366 11.2871C10.0658 11.6685 9.84076 12.006 9.51938 12.2138C8.72888 12.7294 8.16863 13.3912 7.85588 14.1806C7.79963 14.3239 7.66163 14.418 7.50788 14.418ZM5.69776 13.668H7.26038C7.64401 12.8363 8.26576 12.1365 9.11138 11.5852C9.26101 11.4881 9.36601 11.3299 9.39938 11.1503C9.43276 10.971 9.39413 10.794 9.29063 10.6511C8.96626 10.2034 8.49226 9.9045 7.88213 9.76238C7.70738 9.72488 7.54388 9.66938 7.40251 9.5985C6.81976 9.32063 5.42251 8.5425 5.16263 7.38225C5.03401 6.80775 5.19601 6.2385 5.64338 5.691C6.74176 4.34625 7.81576 4.05675 8.52376 4.05113C8.69401 4.04888 8.93776 4.0005 9.11963 3.78375C9.50663 3.32738 10.1918 2.808 11.2965 2.919C11.8868 2.97563 12.2625 2.90288 12.4725 2.832C12.5276 2.81325 12.5471 2.77125 12.5543 2.73938C12.5588 2.71688 12.564 2.65913 12.513 2.61225C12.144 2.27888 11.559 1.788 10.8371 1.31175C7.41376 1.7205 4.50038 3.92213 3.15751 7.107C3.84638 7.809 4.53338 8.97975 4.33126 10.7786C4.31026 10.9676 4.38263 11.1623 4.51951 11.2849C5.00851 11.7323 5.60288 12.4673 5.67676 13.4449C5.68126 13.5188 5.68876 13.593 5.69776 13.668Z" fill="#0C0E12"/>
</g>
<g id="Group_5">
<path id="Vector_7" d="M21.4204 14.4465C21.3979 14.4465 21.3754 14.4446 21.3525 14.4405C21.2704 14.4255 21.1819 14.4176 21.09 14.4176H14.8084C14.6182 14.4176 14.4585 14.2759 14.436 14.0872C14.367 13.5101 14.6764 12.9626 15.2048 12.7249C15.2194 12.7181 15.2347 12.7125 15.2501 12.708C15.3015 12.6746 15.3154 12.6266 15.3187 12.5989C15.3232 12.5662 15.321 12.5032 15.2584 12.4511C14.9929 12.2374 14.6989 11.9531 14.3366 11.5601C13.956 11.1461 13.7655 10.6069 13.7992 10.041C13.8334 9.47625 14.0985 8.94225 14.5264 8.57625C15.2164 7.97475 15.9994 7.4445 16.8502 7.00237C17.139 6.8565 17.4675 6.84712 17.7574 6.97575C18.0472 7.10475 18.2621 7.35675 18.3465 7.66725C18.3679 7.75462 18.3971 7.82775 18.426 7.9035C18.5722 8.2845 18.8689 8.55412 19.2502 8.6685C19.6639 8.79262 20.1195 8.71725 20.4694 8.466C20.769 8.25187 21.0521 8.01975 21.3105 7.77562C21.4054 7.686 21.5385 7.6515 21.666 7.68637C21.7916 7.7205 21.891 7.81762 21.9277 7.94287C22.2011 8.87475 22.3403 9.8475 22.3403 10.833C22.3403 11.9872 22.1494 13.1186 21.7736 14.1956C21.7207 14.3479 21.5771 14.4465 21.4204 14.4465ZM15.2415 13.668H21.09C21.1133 13.668 21.1357 13.6684 21.1586 13.6687C21.4455 12.7556 21.5906 11.8031 21.5906 10.8326C21.5906 10.1205 21.5126 9.41587 21.3581 8.73075C21.2119 8.84962 21.0611 8.96512 20.9062 9.07537C20.3696 9.4605 19.6699 9.57675 19.0354 9.38662C18.4297 9.20512 17.9557 8.77125 17.7356 8.19675C17.685 8.0655 17.6464 7.96162 17.6201 7.85362C17.5886 7.73812 17.5016 7.683 17.4525 7.66125C17.4041 7.63987 17.307 7.61287 17.1926 7.67025C16.6474 7.95337 15.8239 8.44125 15.0165 9.14437C14.7356 9.38475 14.5702 9.71812 14.5477 10.0864C14.526 10.4471 14.6471 10.7902 14.8882 11.0527C15.2242 11.4176 15.4927 11.6779 15.7327 11.871C15.9814 12.0769 16.1032 12.3844 16.0624 12.6964C16.0219 13.0065 15.8261 13.2709 15.5389 13.4029C15.5205 13.4115 15.5014 13.4186 15.4822 13.4239C15.3776 13.4786 15.2944 13.5652 15.2415 13.668Z" fill="#0C0E12"/>
</g>
<g id="Group_6">
<path id="Vector_8" d="M18.8404 5.38837C17.7525 5.38837 16.7835 5.055 16.089 4.72387C15.807 4.58812 15.6221 4.31137 15.6049 4.00087C15.5873 3.68925 15.7414 3.39262 16.0069 3.22612C16.4081 2.98537 16.8278 2.66062 17.2601 2.25712C17.388 2.13825 17.5796 2.12287 17.724 2.21925C18.7125 2.87812 19.5758 3.69525 20.2905 4.64775C20.3659 4.74825 20.3861 4.8795 20.3441 4.998C20.3025 5.11612 20.2043 5.20575 20.0824 5.2365C19.6575 5.34337 19.2409 5.38837 18.8404 5.38837ZM17.5485 3.00825C17.1548 3.3555 16.7696 3.64275 16.3995 3.86512C16.3601 3.88987 16.3523 3.93037 16.3538 3.95887C16.3556 3.987 16.3669 4.02487 16.4134 4.04737C17.1278 4.38825 18.1691 4.73362 19.3039 4.614C18.7864 4.008 18.198 3.46987 17.5485 3.00825Z" fill="#0C0E12"/>
</g>
<path id="Vector_9" d="M23.0036 15.9566V21.2194C23.0036 22.2769 22.1423 23.133 21.09 23.133H2.91001C1.85251 23.133 0.996384 22.2765 0.996384 21.2194V15.9566C0.996384 15.0142 1.67588 14.2342 2.57026 14.0764C2.68013 14.0524 2.79526 14.043 2.91001 14.043H21.09C21.2048 14.043 21.315 14.0527 21.42 14.0719C22.3196 14.2294 23.0036 15.0142 23.0036 15.9566Z" fill="#FD6314"/>
<path id="Vector_10" opacity="0.2" d="M1.76063 21.2194V15.9566C1.76063 15.0142 2.44013 14.2342 3.33451 14.0764C3.44438 14.0524 3.55951 14.043 3.67426 14.043H2.91001C2.79526 14.043 2.68051 14.0527 2.57026 14.0764C1.67551 14.2342 0.996384 15.0142 0.996384 15.9566V21.2194C0.996384 22.2769 1.85288 23.133 2.91001 23.133H3.67463C2.61713 23.133 1.76063 22.2765 1.76063 21.2194Z" fill="#0C0E12"/>
<g id="Group_7">
<path id="Vector_11" d="M21.09 23.508H2.91C1.64813 23.508 0.621002 22.4812 0.621002 21.219V15.9566C0.621002 14.8459 1.413 13.8997 2.50463 13.707C2.61863 13.6819 2.75963 13.668 2.90963 13.668H21.0896C21.2269 13.668 21.3608 13.6796 21.4871 13.7029C22.5821 13.8949 23.3786 14.8432 23.3786 15.9566V21.2194C23.379 22.4812 22.3519 23.508 21.09 23.508ZM2.91 14.418C2.81325 14.418 2.72588 14.4262 2.65013 14.4427C1.90313 14.5751 1.37138 15.2104 1.37138 15.9566V21.2194C1.37138 22.068 2.06175 22.7584 2.91038 22.7584H21.0904C21.939 22.7584 22.6294 22.068 22.6294 21.2194V15.9566C22.6294 15.2077 22.0935 14.5706 21.3559 14.4409C21.2711 14.4255 21.1826 14.4176 21.0908 14.4176H2.91V14.418Z" fill="#0C0E12"/>
</g>
<g id="Group_8">
<path id="Vector_12" d="M4.72988 16.962L6.33038 19.3841V16.9395C6.33038 16.7805 6.3645 16.6616 6.43275 16.5821C6.501 16.5026 6.59288 16.4629 6.70875 16.4629C6.82838 16.4629 6.92288 16.5026 6.99188 16.5821C7.06088 16.6616 7.09575 16.7809 7.09575 16.9395V20.1716C7.09575 20.5324 6.94613 20.7128 6.64725 20.7128C6.57263 20.7128 6.50513 20.7019 6.4455 20.6805C6.38588 20.6591 6.32963 20.625 6.27713 20.5781C6.22463 20.5313 6.17625 20.4769 6.13125 20.4143C6.08625 20.3516 6.04163 20.2875 5.99663 20.2223L4.43513 17.8283V20.2361C4.43513 20.3933 4.39875 20.5118 4.32563 20.592C4.25288 20.6723 4.15913 20.7124 4.04513 20.7124C3.92738 20.7124 3.83288 20.6719 3.762 20.5905C3.69113 20.5091 3.6555 20.391 3.6555 20.2358V17.0651C3.6555 16.9305 3.6705 16.8251 3.7005 16.7483C3.73613 16.6643 3.795 16.5956 3.87713 16.5424C3.95925 16.4891 4.04813 16.4625 4.14338 16.4625C4.218 16.4625 4.28213 16.4745 4.33538 16.4989C4.38863 16.5233 4.4355 16.5559 4.47563 16.5971C4.51575 16.6384 4.557 16.6916 4.599 16.7569C4.641 16.8221 4.68488 16.8911 4.72988 16.962Z" fill="#0C0E12"/>
<path id="Vector_13" d="M10.7149 17.175H8.8395V18.1841H10.5664C10.6935 18.1841 10.7884 18.2126 10.851 18.2696C10.9136 18.3266 10.9447 18.402 10.9447 18.4954C10.9447 18.5888 10.914 18.6649 10.8521 18.7238C10.7906 18.7826 10.695 18.8119 10.5664 18.8119H8.8395V19.9808H10.7794C10.9102 19.9808 11.0089 20.0111 11.0752 20.0719C11.1416 20.1326 11.1746 20.2136 11.1746 20.3145C11.1746 20.4116 11.1416 20.4908 11.0752 20.5515C11.0089 20.6123 10.9102 20.6426 10.7794 20.6426H8.517C8.33587 20.6426 8.20537 20.6025 8.12587 20.5223C8.04637 20.442 8.00662 20.3119 8.00662 20.1326V17.0434C8.00662 16.9238 8.02425 16.8263 8.05987 16.7505C8.0955 16.6748 8.151 16.6196 8.22675 16.5851C8.3025 16.5506 8.39925 16.5334 8.517 16.5334H10.7149C10.8476 16.5334 10.9462 16.5626 11.0107 16.6215C11.0752 16.6804 11.1075 16.7576 11.1075 16.8529C11.1075 16.95 11.0752 17.028 11.0107 17.0869C10.9459 17.1458 10.8472 17.175 10.7149 17.175Z" fill="#0C0E12"/>
<path id="Vector_14" d="M14.7457 19.995L14.0812 17.5313L13.4085 19.9954C13.356 20.1821 13.3147 20.3164 13.2836 20.3978C13.2529 20.4791 13.1989 20.5519 13.1224 20.6164C13.0459 20.6809 12.9439 20.7131 12.8167 20.7131C12.714 20.7131 12.6292 20.694 12.5629 20.6558C12.4965 20.6175 12.4429 20.5631 12.4016 20.493C12.3604 20.4229 12.327 20.3396 12.3007 20.2436C12.2745 20.1473 12.2512 20.058 12.2306 19.9759L11.5466 17.2091C11.5054 17.0483 11.4851 16.926 11.4851 16.842C11.4851 16.7355 11.5226 16.6459 11.5972 16.5728C11.6719 16.5 11.7645 16.4633 11.8747 16.4633C12.0262 16.4633 12.1279 16.512 12.1804 16.6091C12.2329 16.7063 12.2786 16.8473 12.3176 17.0325L12.8557 19.4321L13.4584 17.1866C13.5034 17.0149 13.5435 16.884 13.5787 16.794C13.614 16.704 13.6721 16.6268 13.7524 16.5615C13.8326 16.4963 13.9421 16.4633 14.0805 16.4633C14.2207 16.4633 14.3295 16.4974 14.4071 16.5656C14.4847 16.6339 14.5384 16.7081 14.5684 16.7884C14.5984 16.8686 14.6385 17.0014 14.6887 17.1866L15.297 19.4321L15.8351 17.0325C15.8614 16.9073 15.8861 16.809 15.9094 16.7381C15.9326 16.6673 15.9727 16.6035 16.0297 16.5476C16.0867 16.4914 16.1696 16.4636 16.278 16.4636C16.3864 16.4636 16.4782 16.4996 16.554 16.5716C16.6297 16.6436 16.6676 16.7336 16.6676 16.842C16.6676 16.9185 16.647 17.0411 16.6061 17.2091L15.9221 19.9759C15.8752 20.1626 15.8366 20.2995 15.8059 20.3865C15.7751 20.4735 15.7226 20.5496 15.6487 20.6149C15.5749 20.6801 15.4706 20.7131 15.336 20.7131C15.2089 20.7131 15.1072 20.6813 15.0304 20.6179C14.9539 20.5545 14.9006 20.4829 14.8706 20.4034C14.8406 20.3239 14.8001 20.1878 14.7457 19.995Z" fill="#0C0E12"/>
<path id="Vector_15" d="M20.3441 19.4093C20.3441 19.6579 20.28 19.881 20.1521 20.0794C20.0242 20.2778 19.8367 20.4326 19.59 20.5448C19.3432 20.6569 19.0507 20.7131 18.7125 20.7131C18.3071 20.7131 17.9722 20.6366 17.709 20.4833C17.5222 20.373 17.3704 20.226 17.2534 20.0419C17.1367 19.8578 17.0782 19.6789 17.0782 19.5049C17.0782 19.404 17.1131 19.3174 17.1832 19.2458C17.2534 19.1738 17.3426 19.1378 17.451 19.1378C17.5387 19.1378 17.613 19.1659 17.6737 19.2218C17.7345 19.278 17.7862 19.3609 17.8294 19.4711C17.8819 19.602 17.9381 19.7111 17.9989 19.7993C18.0596 19.887 18.1451 19.9594 18.2554 20.0164C18.3656 20.0734 18.5104 20.1019 18.69 20.1019C18.9367 20.1019 19.137 20.0445 19.2911 19.9294C19.4452 19.8146 19.5225 19.671 19.5225 19.4993C19.5225 19.3628 19.4809 19.2521 19.3976 19.167C19.3144 19.0819 19.2071 19.017 19.0751 18.972C18.9435 18.927 18.7672 18.8794 18.5467 18.8291C18.2516 18.7601 18.0045 18.6791 17.8054 18.5865C17.6062 18.4939 17.4484 18.3679 17.3317 18.2081C17.2151 18.0484 17.1566 17.8496 17.1566 17.6123C17.1566 17.3861 17.2181 17.1851 17.3415 17.0096C17.4649 16.8341 17.6434 16.6988 17.877 16.6046C18.1106 16.5101 18.3855 16.4629 18.7012 16.4629C18.9536 16.4629 19.1719 16.494 19.356 16.5566C19.5401 16.6193 19.6927 16.7025 19.8142 16.806C19.9357 16.9099 20.0246 17.0186 20.0805 17.1326C20.1367 17.2466 20.1645 17.358 20.1645 17.4664C20.1645 17.5654 20.1296 17.6546 20.0595 17.7341C19.9894 17.8136 19.902 17.8534 19.7974 17.8534C19.7021 17.8534 19.6297 17.8294 19.5802 17.7818C19.5307 17.7341 19.4771 17.6561 19.419 17.5478C19.3444 17.3925 19.2544 17.2718 19.1497 17.1848C19.0451 17.0978 18.8767 17.0543 18.645 17.0543C18.4301 17.0543 18.2569 17.1015 18.1249 17.196C17.9932 17.2905 17.9272 17.4038 17.9272 17.5365C17.9272 17.6186 17.9497 17.6899 17.9944 17.7495C18.0394 17.8091 18.1009 17.8609 18.1792 17.9036C18.2576 17.9468 18.3371 17.9801 18.4174 18.0045C18.4976 18.0289 18.6304 18.0641 18.8156 18.111C19.0474 18.1654 19.257 18.225 19.4449 18.2903C19.6327 18.3555 19.7925 18.435 19.9241 18.5284C20.0557 18.6218 20.1585 18.7399 20.2324 18.8831C20.307 19.0268 20.3441 19.2019 20.3441 19.4093Z" fill="#0C0E12"/>
</g>
<g id="Group_9" opacity="0.2">
<path id="Vector_16" d="M3.33863 10.8326C3.33863 9.5505 3.57788 8.32575 4.02263 7.2015C5.35275 3.80963 8.47688 1.3215 12.2374 0.924379C12.411 0.905254 12.5869 0.891004 12.7646 0.881629C12.6345 0.876754 12.5059 0.867004 12.375 0.867004C12.0113 0.867004 11.6528 0.886129 11.3033 0.924379C7.54275 1.3215 4.41863 3.80925 3.08888 7.2015C2.64413 8.32575 2.40488 9.5505 2.40488 10.8326C2.40488 11.9666 2.59613 13.0575 2.94563 14.0764C3.0555 14.0524 3.17063 14.043 3.28538 14.043H3.86963C3.52688 13.0331 3.33863 11.9543 3.33863 10.8326Z" fill="#0C0E12"/>
</g>
</g>
</g>
</g>
<defs>
<clipPath id="clip0_2_548">
<rect width="24" height="24" fill="white"/>
</clipPath>
</defs>
</svg>
