<svg width="16" height="16" viewBox="0 0 16 16" fill="none" xmlns="http://www.w3.org/2000/svg">
<g id="fi-sr-play">
<path id="Vector" d="M3.5 12.0822V12.0814V3.91535C3.5004 3.46541 3.62107 3.02548 3.84718 2.64447C4.07324 2.26353 4.39521 1.95734 4.77549 1.75769C5.15559 1.55813 5.58024 1.47213 6.00279 1.50791C6.42538 1.5437 6.83183 1.70013 7.17688 1.96194L12.3502 5.89275V5.89554L12.5476 6.04561C12.8408 6.26863 13.0809 6.5613 13.247 6.901C13.413 7.24076 13.5 7.61723 13.5 7.99975C13.5 8.38227 13.413 8.75874 13.247 9.0985C13.0809 9.43814 12.8409 9.73077 12.5477 9.95377C12.5477 9.95381 12.5476 9.95385 12.5476 9.95389L7.17662 14.0348L7.17593 14.0354C6.83121 14.2982 6.4247 14.4555 6.00184 14.4919C5.57904 14.5282 5.15401 14.4424 4.77364 14.2427C4.39309 14.0429 4.07103 13.7363 3.84522 13.3548C3.61934 12.9731 3.49933 12.5325 3.5 12.0822Z" stroke="white"/>
</g>
</svg>
