<svg width="24" height="24" viewBox="0 0 24 24" fill="none" xmlns="http://www.w3.org/2000/svg">
<g id="sports 1">
<path id="Vector" d="M8.5 16C12.6421 16 16 12.6421 16 8.5C16 4.35786 12.6421 1 8.5 1C4.35786 1 1 4.35786 1 8.5C1 12.6421 4.35786 16 8.5 16Z" fill="#F15A24"/>
<path id="Vector_2" d="M8.5451 15.6386C8.56177 15.8426 8.72314 15.9993 8.91688 15.9996C8.92771 16.0001 8.93855 16.0001 8.94938 15.9996C9.15489 15.9807 9.30711 15.7894 9.28941 15.5722C9.14578 13.7585 8.43996 12.0456 7.28141 10.6991L8.46439 9.44868L9.69481 10.7493C9.84325 10.9008 10.0798 10.8965 10.2232 10.7396C10.363 10.5865 10.363 10.3439 10.2232 10.1908L8.99273 8.8902L10.1798 7.6354C10.6266 8.06482 11.1184 8.43876 11.6456 8.74999C11.8261 8.85599 12.0537 8.78731 12.154 8.59654C12.2543 8.40578 12.1893 8.16519 12.0088 8.0592C11.5419 7.784 11.1059 7.45406 10.7089 7.07573L14 3.59768C13.8326 3.40202 13.6565 3.2159 13.4717 3.0392L10.1798 6.52041C9.1214 5.27968 8.48634 3.70017 8.37583 2.03362L8.30858 1.04226C8.30591 1.02789 8.30232 1.01377 8.29774 1C8.05188 1.00553 7.80863 1.02251 7.56875 1.05293C7.56614 1.06793 7.56427 1.08309 7.56315 1.09835L7.6304 2.08971C7.75375 3.9453 8.46556 5.70264 9.65072 7.07771L8.46439 8.33172L3.45749 3.03841C3.27216 3.21535 3.09594 3.40178 2.92878 3.59768L7.93605 8.8902L6.7527 10.1411C5.45063 8.88877 3.78705 8.1373 2.0309 8.00824L1.09304 7.93755C1.07861 7.93853 1.06427 7.94051 1.05007 7.94347C1.0213 8.19664 1.00523 8.45337 1 8.71326C1.01312 8.718 1.02644 8.72194 1.03998 8.7251L1.97784 8.7958C3.55408 8.91232 5.04821 9.58272 6.22249 10.7003L2.92878 14.1827C3.09617 14.3781 3.2723 14.5643 3.45712 14.7412L6.7527 11.26C7.78608 12.4737 8.41558 14.0114 8.5451 15.6386Z" fill="#0C0E12"/>
<path id="Vector_3" d="M9.17636 15.5821C8.31783 11.8014 10.6769 8.03823 14.4455 7.17693C18.2141 6.31563 21.9651 8.68231 22.8236 12.4631C23.6822 16.2438 21.3231 20.007 17.5545 20.8683C17.2987 20.9267 17.0398 20.9707 16.779 21" fill="#E6E6E6"/>
<path id="Vector_4" d="M22.9533 12.8848C22.8285 11.8343 22.4405 10.8276 21.8219 9.9489C21.6361 9.68921 21.4314 9.44228 21.2093 9.20984H20.6686C20.4949 9.20998 20.3424 9.31945 20.2948 9.47812L19.5632 11.91L18.3738 12.4868L16.3901 11.2304V9.77189L18.5581 8.33074C18.6927 8.24122 18.7535 8.08108 18.7102 7.93054L18.576 7.4642C16.9333 6.8495 15.1072 6.84516 13.4613 7.45201L13.2987 7.90985C13.2435 8.06528 13.3028 8.23665 13.4442 8.33074L15.6122 9.77189V11.2293L13.6219 12.4898L12.0218 11.8815L11.3061 10.1817C11.2705 10.0976 11.2039 10.0288 11.1186 9.98806L10.4111 9.65327C9.58173 10.6969 9.09768 11.9513 9.02061 13.2569C9.01284 13.3862 9 13.5156 9 13.6456C9 13.7868 9.00583 13.9268 9.01478 14.0658L9.60404 14.3459C9.75379 14.4169 9.93461 14.3889 10.0529 14.2764L11.8164 12.6014L13.3462 13.1826L14.0716 15.5945C14.1197 15.7526 14.2721 15.8614 14.4454 15.8613H17.396L18.2517 16.6743L17.21 18.6534C17.1419 18.783 17.1597 18.9384 17.2555 19.0511L18.0626 20C19.7587 19.5085 21.1922 18.4187 22.0688 16.9544L21.7966 16.4352C21.7304 16.3093 21.5947 16.2301 21.4465 16.2308H18.8849L17.9938 15.3843L18.655 13.18L19.8631 12.5936L22.007 13.9516C22.1229 14.025 22.2712 14.0338 22.396 13.9749L22.9977 13.6889C22.9977 13.6737 23 13.6593 23 13.6442C22.9996 13.3904 22.9841 13.1369 22.9533 12.8848Z" fill="#0C0E12"/>
<path id="Vector_5" d="M2.30667 19.9784L3.5397 20.9432C5.24508 22.2784 7.31956 23.0001 9.45149 23H10.5485C12.6804 23.0001 14.7549 22.2784 16.4602 20.9432L17.6933 19.9784C18.032 19.7133 18.1007 19.2119 17.8467 18.8584C17.8183 18.8189 17.7864 18.7822 17.7515 18.7488L16.6584 17.7028C14.841 15.9644 12.4653 15.0001 9.99997 15C7.53468 15.0001 5.15893 15.9644 3.34154 17.7028L2.24841 18.7488C1.93642 19.0474 1.91548 19.5535 2.20165 19.8791C2.23365 19.9156 2.26877 19.9487 2.30667 19.9784Z" fill="#FF902A"/>
<g id="Group">
<path id="Vector_6" d="M13.5438 19.5262H5.82449C5.61134 19.5262 5.43852 19.3534 5.43852 19.1403C5.43852 18.9271 5.61134 18.7543 5.82449 18.7543H13.5438C13.757 18.7543 13.9298 18.9271 13.9298 19.1403C13.9298 19.3534 13.757 19.5262 13.5438 19.5262Z" fill="#42210B"/>
<path id="Vector_7" d="M6.59642 20.2981C6.38327 20.2981 6.21045 20.1253 6.21045 19.9122V18.3683C6.21045 18.1551 6.38327 17.9823 6.59642 17.9823C6.80957 17.9823 6.98238 18.1551 6.98238 18.3683V19.9122C6.98238 20.1253 6.80957 20.2981 6.59642 20.2981Z" fill="#42210B"/>
<path id="Vector_8" d="M8.14028 20.2981C7.92713 20.2981 7.75431 20.1253 7.75431 19.9122V18.3683C7.75431 18.1551 7.92713 17.9823 8.14028 17.9823C8.35343 17.9823 8.52625 18.1551 8.52625 18.3683V19.9122C8.52625 20.1253 8.35343 20.2981 8.14028 20.2981Z" fill="#42210B"/>
<path id="Vector_9" d="M9.68419 20.2981C9.47104 20.2981 9.29822 20.1253 9.29822 19.9122V18.3683C9.29822 18.1551 9.47104 17.9823 9.68419 17.9823C9.89734 17.9823 10.0702 18.1551 10.0702 18.3683V19.9122C10.0702 20.1253 9.89734 20.2981 9.68419 20.2981Z" fill="#42210B"/>
<path id="Vector_10" d="M11.228 20.2981C11.0149 20.2981 10.8421 20.1253 10.8421 19.9122V18.3683C10.8421 18.1551 11.0149 17.9823 11.228 17.9823C11.4412 17.9823 11.614 18.1551 11.614 18.3683V19.9122C11.614 20.1253 11.4412 20.2981 11.228 20.2981Z" fill="#42210B"/>
<path id="Vector_11" d="M12.7719 20.2981C12.5588 20.2981 12.3859 20.1253 12.3859 19.9122V18.3683C12.3859 18.1551 12.5588 17.9823 12.7719 17.9823C12.9851 17.9823 13.1579 18.1551 13.1579 18.3683V19.9122C13.1579 20.1253 12.9851 20.2981 12.7719 20.2981Z" fill="#42210B"/>
</g>
</g>
</svg>
